<?xml version="1.0" encoding="UTF-8" standalone="no"?>
<!-- Created with Inkscape (http://www.inkscape.org/) -->

<svg
   width="25mm"
   height="25mm"
   viewBox="0 0 25 25"
   version="1.1"
   id="svg5"
   inkscape:version="1.2.1 (9c6d41e4, 2022-07-14)"
   sodipodi:docname="close.svg"
   xmlns:inkscape="http://www.inkscape.org/namespaces/inkscape"
   xmlns:sodipodi="http://sodipodi.sourceforge.net/DTD/sodipodi-0.dtd"
   xmlns="http://www.w3.org/2000/svg"
   xmlns:svg="http://www.w3.org/2000/svg">
  <sodipodi:namedview
     id="namedview7"
     pagecolor="#ffffff"
     bordercolor="#000000"
     borderopacity="0.25"
     inkscape:showpageshadow="false"
     inkscape:pageopacity="0.0"
     inkscape:pagecheckerboard="0"
     inkscape:deskcolor="#d1d1d1"
     inkscape:document-units="mm"
     showgrid="true"
     inkscape:lockguides="true"
     inkscape:zoom="12.138853"
     inkscape:cx="30.357069"
     inkscape:cy="62.691261"
     inkscape:window-width="2048"
     inkscape:window-height="1124"
     inkscape:window-x="2048"
     inkscape:window-y="0"
     inkscape:window-maximized="0"
     inkscape:current-layer="layer1">
    <inkscape:grid
       type="xygrid"
       id="grid3022"
       originx="0"
       originy="0"
       units="mm"
       spacingx="0.99999999"
       spacingy="0.99999999" />
  </sodipodi:namedview>
  <defs
     id="defs2" />
  <g
     inkscape:label="Layer 1"
     inkscape:groupmode="layer"
     id="layer1">
    <path
       id="path186"
       style="fill:#800000;stroke-width:0.264583"
       d="m 12.803219,12.19644 a 7.5,7.5 0 0 0 -10.6066856,3.66e-4 7.5,7.5 0 0 0 4e-7,10.606319 7.5,7.5 0 0 0 10.6066852,3.66e-4 7.5,7.5 0 0 0 0,-10.607051 z m -0.771741,2.186599 a 5.5,5.5 0 0 1 -0.642387,7.006324 5.5,5.5 0 0 1 -7.0048623,0.640925 z m -1.415589,-1.413396 -7.6461529,7.646153 a 5.5,5.5 0 0 1 0.6409245,-7.004863 5.5,5.5 0 0 1 7.0052284,-0.64129 z" />
  </g>
</svg>
