<?xml version="1.0" encoding="UTF-8" standalone="no"?>
<!-- Created with Inkscape (http://www.inkscape.org/) -->

<svg
   width="25mm"
   height="25mm"
   viewBox="0 0 25 25"
   version="1.1"
   id="svg5"
   inkscape:version="1.2.1 (9c6d41e4, 2022-07-14)"
   sodipodi:docname="findInFiles.svg"
   xmlns:inkscape="http://www.inkscape.org/namespaces/inkscape"
   xmlns:sodipodi="http://sodipodi.sourceforge.net/DTD/sodipodi-0.dtd"
   xmlns="http://www.w3.org/2000/svg"
   xmlns:svg="http://www.w3.org/2000/svg">
  <sodipodi:namedview
     id="namedview7"
     pagecolor="#ffffff"
     bordercolor="#000000"
     borderopacity="0.25"
     inkscape:showpageshadow="false"
     inkscape:pageopacity="0.0"
     inkscape:pagecheckerboard="0"
     inkscape:deskcolor="#d1d1d1"
     inkscape:document-units="mm"
     showgrid="true"
     inkscape:lockguides="true"
     inkscape:zoom="7.5345674"
     inkscape:cx="70.541542"
     inkscape:cy="41.940032"
     inkscape:window-width="2048"
     inkscape:window-height="1152"
     inkscape:window-x="3840"
     inkscape:window-y="0"
     inkscape:window-maximized="0"
     inkscape:current-layer="g2339">
    <inkscape:grid
       type="xygrid"
       id="grid3022"
       originx="0"
       originy="0"
       units="mm"
       spacingx="0.99999999"
       spacingy="0.99999999" />
  </sodipodi:namedview>
  <defs
     id="defs2" />
  <g
     inkscape:label="Layer 1"
     inkscape:groupmode="layer"
     id="layer1">
       id=&quot;g1367&quot;&gt;
<g
   id="g2339">
  <g
     id="path1073"
     transform="rotate(45,3.7379569,12.021448)">
    <path
       style="color:#000000;fill:#ba0055;paint-order:markers stroke fill"
       d="M 7.4972168,0 C 3.3565871,1.8868795e-5 -4.2289995e-5,3.3929724 0,7.5783488 -4.2508549e-5,11.763725 3.3565869,15.156679 7.4972168,15.156698 11.637847,15.156679 14.994477,11.763726 14.994434,7.5783488 14.994476,3.3929722 11.637847,1.8645494e-5 7.4972168,0 Z m 0.00258,1.9998779 C 10.537503,1.9996328 13.000198,4.4620945 13.00024,7.4998006 13.000483,10.537707 10.537707,13.000483 7.4998006,13.00024 4.462096,13.000198 1.9996349,10.537505 1.9998779,7.4998006 1.9999203,4.4622978 4.4622978,1.9999203 7.4998006,1.9998779 Z"
       id="path2353" />
    <path
       style="color:#000000;fill:#000000;stroke-width:0;paint-order:markers stroke fill"
       d="M 7.4972168,0 A 7.4972506,7.5782714 0 0 0 0,7.5783488 7.4972506,7.5782714 0 0 0 7.4972168,15.156698 7.4972506,7.5782714 0 0 0 14.994434,7.5783488 7.4972506,7.5782714 0 0 0 7.4972168,0 Z m 0.00258,1.9998779 A 5.4999995,5.4999995 0 0 1 13.00024,7.4998006 5.4999995,5.4999995 0 0 1 7.4998006,13.00024 5.4999995,5.4999995 0 0 1 1.9998779,7.4998006 5.4999995,5.4999995 0 0 1 7.4998006,1.9998779 Z"
       id="path2355" />
  </g>
  <g
     id="rect1079"
     transform="rotate(45,3.7379569,12.021448)" />
  <g
     id="rect1081"
     transform="rotate(45,3.7379569,12.021448)" />
  <g
     id="path1083"
     transform="rotate(45,3.7379569,12.021448)">
    <path
       id="path2373"
       style="color:#000000;fill:#000000;stroke-width:0;-inkscape-stroke:none;paint-order:markers stroke fill"
       d="M 24.499999,7.499999 A 1.4999994,1.4999995 0 0 1 23,8.9999986 1.4999994,1.4999995 0 0 1 21.500001,7.499999 1.4999994,1.4999995 0 0 1 23,5.9999995 1.4999994,1.4999995 0 0 1 24.499999,7.499999 Z m 0,0 c 0,0.8284259 -0.671573,1.4999994 -1.499999,1.4999996 -0.828426,-2e-7 -1.499999,-0.6715737 -1.499999,-1.4999996 0,-0.8284259 0.671573,-1.4999993 1.499999,-1.4999995 0.828426,2e-7 1.499999,0.6715736 1.499999,1.4999995 z M 17.000001,6 h 5.999998 V 9 H 17 Z m 0,0 h 5.999998 V 9 H 17 Z m -3,0.5000006 H 17 v 1.9999989 h -2.999999 z m 0,0 H 17 v 1.9999989 h -2.999999 z" />
  </g>
</g>
</g>
</svg>
