<?xml version="1.0" encoding="UTF-8" standalone="no"?>
<!-- Created with Inkscape (http://www.inkscape.org/) -->

<svg
   width="25mm"
   height="25mm"
   viewBox="0 0 25 25"
   version="1.1"
   id="svg5"
   inkscape:version="1.2.1 (9c6d41e4, 2022-07-14)"
   sodipodi:docname="findInFiles.svg"
   xmlns:inkscape="http://www.inkscape.org/namespaces/inkscape"
   xmlns:sodipodi="http://sodipodi.sourceforge.net/DTD/sodipodi-0.dtd"
   xmlns="http://www.w3.org/2000/svg"
   xmlns:svg="http://www.w3.org/2000/svg">
  <sodipodi:namedview
     id="namedview7"
     pagecolor="#ffffff"
     bordercolor="#000000"
     borderopacity="0.25"
     inkscape:showpageshadow="false"
     inkscape:pageopacity="0.0"
     inkscape:pagecheckerboard="0"
     inkscape:deskcolor="#d1d1d1"
     inkscape:document-units="mm"
     showgrid="true"
     inkscape:lockguides="true"
     inkscape:zoom="7.5345674"
     inkscape:cx="70.674263"
     inkscape:cy="41.674589"
     inkscape:window-width="2048"
     inkscape:window-height="1152"
     inkscape:window-x="3840"
     inkscape:window-y="0"
     inkscape:window-maximized="0"
     inkscape:current-layer="svg5">
    <inkscape:grid
       type="xygrid"
       id="grid3022"
       originx="0"
       originy="0"
       units="mm"
       spacingx="0.99999999"
       spacingy="0.99999999" />
  </sodipodi:namedview>
  <defs
     id="defs2" />
  <path
     id="rect534"
     style="fill:#000000;stroke:#ae0055;stroke-width:0;paint-order:markers stroke fill"
     d="m 15.462926,16.048776 a 7.4999181,7.4999995 0 0 1 -0.659553,0.754567 7.4999181,7.4999995 0 0 1 -0.756751,0.657368 l 1.463806,1.463823 1.414113,-1.414128 z m 5.704212,4.29006 -2.828589,2.82862 a 1.9995924,1.9999889 43.43161 0 0 2.828309,8.6e-5 1.9995924,1.9999889 43.43161 0 0 2.8e-4,-2.828706 z m -3.535496,-3.535534 3.535495,3.535534 -2.828395,2.828426 -3.535496,-3.535533 z M 14.803105,6.1965586 a 7.4999181,7.4999995 0 0 0 -10.6062051,0 7.4999181,7.4999995 0 0 0 -3.654e-4,10.6066854 7.4999181,7.4999995 0 0 0 10.6069355,0 7.4999181,7.4999995 0 0 0 -3.65e-4,-10.6066854 z m -1.414112,1.4141272 a 5.4999398,5.4999995 0 0 1 3.65e-4,7.7784302 5.4999398,5.4999995 0 0 1 -7.7787117,0 5.4999398,5.4999995 0 0 1 3.654e-4,-7.7784302 5.4999398,5.4999995 0 0 1 7.7779813,0 z" />
</svg>
