<?xml version="1.0" encoding="UTF-8" standalone="no"?>
<!-- Created with Inkscape (http://www.inkscape.org/) -->

<svg
   width="25mm"
   height="25mm"
   viewBox="0 0 25 25"
   version="1.1"
   id="svg5"
   inkscape:version="1.2.1 (9c6d41e4, 2022-07-14)"
   sodipodi:docname="findInFiles.svg"
   xmlns:inkscape="http://www.inkscape.org/namespaces/inkscape"
   xmlns:sodipodi="http://sodipodi.sourceforge.net/DTD/sodipodi-0.dtd"
   xmlns="http://www.w3.org/2000/svg"
   xmlns:svg="http://www.w3.org/2000/svg">
  <sodipodi:namedview
     id="namedview7"
     pagecolor="#ffffff"
     bordercolor="#000000"
     borderopacity="0.25"
     inkscape:showpageshadow="false"
     inkscape:pageopacity="0.0"
     inkscape:pagecheckerboard="0"
     inkscape:deskcolor="#d1d1d1"
     inkscape:document-units="mm"
     showgrid="true"
     inkscape:lockguides="true"
     inkscape:zoom="7.5345674"
     inkscape:cx="70.674263"
     inkscape:cy="41.674589"
     inkscape:window-width="2048"
     inkscape:window-height="1152"
     inkscape:window-x="3840"
     inkscape:window-y="0"
     inkscape:window-maximized="0"
     inkscape:current-layer="svg5">
    <inkscape:grid
       type="xygrid"
       id="grid3022"
       originx="0"
       originy="0"
       units="mm"
       spacingx="0.99999999"
       spacingy="0.99999999" />
  </sodipodi:namedview>
  <defs
     id="defs2" />
  <path
     id="rect534"
     style="fill:#000000;stroke:#ae0055;stroke-width:0;paint-order:markers stroke fill"
     d="m 14.932939,6.5000005 a 7.4999995,7.4999995 0 0 1 0.06718,0.999939 7.4999995,7.4999995 0 0 1 -0.07028,0.999939 h 2.070158 v -1.999878 z m 7.067061,-1 V 9.500273 A 1.9996035,1.9999995 0 0 0 23.999999,7.5003955 1.9996035,1.9999995 0 0 0 22,5.5000005 Z m -5,0 h 4.999999 V 9.4999993 H 17 Z M 7.4998006,0 A 7.4999995,7.4999995 0 0 0 0,7.4998006 7.4999995,7.4999995 0 0 0 7.4998006,15.000118 7.4999995,7.4999995 0 0 0 15.000118,7.4998006 7.4999995,7.4999995 0 0 0 7.4998006,0 Z m 0,1.9998779 A 5.4999995,5.4999995 0 0 1 13.00024,7.4998006 5.4999995,5.4999995 0 0 1 7.4998006,13.00024 5.4999995,5.4999995 0 0 1 1.9998779,7.4998006 5.4999995,5.4999995 0 0 1 7.4998006,1.9998779 Z" />
</svg>
