<?xml version="1.0" encoding="UTF-8" standalone="no"?>
<!-- Created with Inkscape (http://www.inkscape.org/) -->

<svg
   width="25mm"
   height="25mm"
   viewBox="0 0 25 25"
   version="1.1"
   id="svg5"
   inkscape:version="1.2.1 (9c6d41e4, 2022-07-14)"
   sodipodi:docname="findInFiles.svg"
   xmlns:inkscape="http://www.inkscape.org/namespaces/inkscape"
   xmlns:sodipodi="http://sodipodi.sourceforge.net/DTD/sodipodi-0.dtd"
   xmlns="http://www.w3.org/2000/svg"
   xmlns:svg="http://www.w3.org/2000/svg">
  <sodipodi:namedview
     id="namedview7"
     pagecolor="#ffffff"
     bordercolor="#000000"
     borderopacity="0.25"
     inkscape:showpageshadow="false"
     inkscape:pageopacity="0.0"
     inkscape:pagecheckerboard="0"
     inkscape:deskcolor="#d1d1d1"
     inkscape:document-units="mm"
     showgrid="true"
     inkscape:lockguides="true"
     inkscape:zoom="5.2716364"
     inkscape:cx="41.068842"
     inkscape:cy="46.854521"
     inkscape:window-width="2048"
     inkscape:window-height="1152"
     inkscape:window-x="3840"
     inkscape:window-y="0"
     inkscape:window-maximized="0"
     inkscape:current-layer="svg5"
     showguides="true">
    <inkscape:grid
       type="xygrid"
       id="grid3022"
       originx="0"
       originy="0"
       units="mm"
       spacingx="0.99999999"
       spacingy="0.99999999" />
    <sodipodi:guide
       position="-13,34"
       orientation="0.70710678,-0.70710678"
       id="guide836"
       inkscape:locked="true" />
  </sodipodi:namedview>
  <defs
     id="defs2" />
  <path
     id="rect534"
     style="fill:#000000;stroke:#ae0055;stroke-width:0;paint-order:markers stroke fill"
     d="m 13.462926,16.048775 a 7.4999181,7.4999995 0 0 1 -0.659553,0.754567 7.4999181,7.4999995 0 0 1 -0.756751,0.657368 l 1.463806,1.463823 1.414113,-1.414128 z m 5.704212,4.29006 -2.828589,2.82862 a 1.9995924,1.9999889 43.43161 0 0 2.828309,8.6e-5 1.9995924,1.9999889 43.43161 0 0 2.8e-4,-2.828706 z m -3.535496,-3.535534 3.535495,3.535534 -2.828395,2.828426 -3.535496,-3.535533 z M 12.803105,6.1965584 a 7.4999181,7.4999995 0 0 0 -10.606205,0 7.4999181,7.4999995 0 0 0 -3.66e-4,10.6066846 7.4999181,7.4999995 0 0 0 10.606936,0 7.4999181,7.4999995 0 0 0 -3.65e-4,-10.6066846 z m -1.414112,1.4141272 a 5.4999398,5.4999995 0 0 1 3.65e-4,7.7784294 5.4999398,5.4999995 0 0 1 -7.778712,0 5.4999398,5.4999995 0 0 1 3.65e-4,-7.7784294 5.4999398,5.4999995 0 0 1 7.777982,0 z" />
  <path
     id="rect912"
     style="stroke:#ae0055;stroke-width:0;paint-order:markers stroke fill"
     d="M 9.000001,10.000001 H 14 V 13 H 9.000001 Z m 9e-7,-4.0000005 H 12.000002 V 12 H 9.0000019 Z M 15.5,1.3478702e-6 19.999998,4.4999996 H 15.5 Z M 11.000001,5.3335864e-7 H 15.5 V 2.0000006 H 11.000001 Z M 11.000002,2.0000006 h 1.999999 v 4.9999988 h -1.999999 z m 6.999999,2.4999999 H 20 v 4.499999 h -1.999999 z m -4,4.4999999 H 20 V 11 h -5.999999 z" />
</svg>
