<?xml version="1.0" encoding="UTF-8" standalone="no"?>
<!-- Created with Inkscape (http://www.inkscape.org/) -->

<svg
   width="25mm"
   height="25mm"
   viewBox="0 0 25 25"
   version="1.1"
   id="svg5"
   inkscape:version="1.2.1 (9c6d41e4, 2022-07-14)"
   sodipodi:docname="findInFiles.svg"
   xmlns:inkscape="http://www.inkscape.org/namespaces/inkscape"
   xmlns:sodipodi="http://sodipodi.sourceforge.net/DTD/sodipodi-0.dtd"
   xmlns="http://www.w3.org/2000/svg"
   xmlns:svg="http://www.w3.org/2000/svg">
  <sodipodi:namedview
     id="namedview7"
     pagecolor="#ffffff"
     bordercolor="#000000"
     borderopacity="0.25"
     inkscape:showpageshadow="false"
     inkscape:pageopacity="0.0"
     inkscape:pagecheckerboard="0"
     inkscape:deskcolor="#d1d1d1"
     inkscape:document-units="mm"
     showgrid="true"
     inkscape:lockguides="true"
     inkscape:zoom="7.5345674"
     inkscape:cx="70.40882"
     inkscape:cy="41.940032"
     inkscape:window-width="2048"
     inkscape:window-height="1152"
     inkscape:window-x="3840"
     inkscape:window-y="0"
     inkscape:window-maximized="0"
     inkscape:current-layer="layer1">
    <inkscape:grid
       type="xygrid"
       id="grid3022"
       originx="0"
       originy="0"
       units="mm"
       spacingx="0.99999999"
       spacingy="0.99999999" />
  </sodipodi:namedview>
  <defs
     id="defs2" />
  <g
     inkscape:label="Layer 1"
     inkscape:groupmode="layer"
     id="layer1">
       id=&quot;g1367&quot;&gt;
<path
   id="path1073"
   style="fill:#000000;stroke:#ba0055;stroke-width:0;paint-order:markers stroke fill"
   d="M 7.4972168 0 A 7.4972506 7.5782714 0 0 0 0 7.5783488 A 7.4972506 7.5782714 0 0 0 7.4972168 15.156698 A 7.4972506 7.5782714 0 0 0 14.994434 7.5783488 A 7.4972506 7.5782714 0 0 0 7.4972168 0 z M 7.4998006 1.9998779 A 5.4999995 5.4999995 0 0 1 13.00024 7.4998006 A 5.4999995 5.4999995 0 0 1 7.4998006 13.00024 A 5.4999995 5.4999995 0 0 1 1.9998779 7.4998006 A 5.4999995 5.4999995 0 0 1 7.4998006 1.9998779 z " />
<path
   id="rect1079"
   style="stroke:#ba0055;stroke-width:0;paint-order:markers stroke fill"
   d="M 14.000001,6.5000005 H 16 v 1.9999991 h -1.999999 z" />
<path
   id="rect1081"
   style="stroke:#ba0055;stroke-width:0;paint-order:markers stroke fill"
   d="m 15.999999,6 h 7 v 3 h -7 z" />
<path
   id="path1083"
   style="stroke:#ba0055;stroke-width:0;paint-order:markers stroke fill"
   d="M 24.499999,7.499999 A 1.4999994,1.4999995 0 0 1 23,8.9999986 1.4999994,1.4999995 0 0 1 21.500001,7.499999 1.4999994,1.4999995 0 0 1 23,5.9999995 1.4999994,1.4999995 0 0 1 24.499999,7.499999 Z" />
</g>
</svg>
